<?xml version="1.0" encoding="utf-8"?>
<!-- Generator: Adobe Illustrator 28.0.0, SVG Export Plug-In . SVG Version: 6.00 Build 0)  -->
<svg version="1.1" id="Слой_1" xmlns="http://www.w3.org/2000/svg" xmlns:xlink="http://www.w3.org/1999/xlink" x="0px" y="0px"
	 viewBox="0 0 1000 1000" enable-background="new 0 0 1000 1000" xml:space="preserve">
<path fill="#0077FF" d="M520.8913574,0c225.626709,0,338.9043579,0,408.5422363,70.566391
	C1000,141.132782,1000,253.4819183,1000,479.1086426v41.7827148c0,225.626709,0,338.9043579-70.5664062,408.5422363
	S746.5180664,1000,520.8913574,1000h-41.7827148c-225.6267548,0-338.9043884,0-408.5422668-70.5664062
	C0,859.7957153,0,746.5181274,0,520.8913574v-41.7827148C0,253.4818878,0,140.2042542,70.566391,70.5663757
	C140.2042847,0,253.4818878,0,479.1086426,0H520.8913574L520.8913574,0z"/>
<path fill-rule="evenodd" clip-rule="evenodd" fill="#D357FF" d="M784.586853,990.7149658
	C719.5914917,1000,634.1690063,1000,519.9628906,1000h-41.7827454c-225.6267395,0-338.9043579,0-408.5422668-70.5664062
	c-38.9972153-38.9971313-56.638813-91.9219971-64.0668564-168.9879761
	c9.2850513-61.281311,29.7121658-136.4901733,55.7103081-234.9117432l10.2135582-39.9257202
	c57.5673141-215.413208,86.350975-322.1912842,171.773468-371.4020691
	c77.0659027-43.6397324,172.7019806-24.1411362,350.0464478,22.2841187
	c176.4159546,48.2822571,269.2664795,79.8514557,313.8346558,155.9888611
	c50.1392822,85.4224548,21.3556519,192.200592-36.211731,407.6137695l-10.213501,39.9257202
	C832.8690796,849.5822144,810.585022,930.3621216,784.586853,990.7149658z"/>
<path fill="#FFFFFF" d="M419.6843262,244.1968384c-1.8570251-25.9981384-24.1411133-45.4967499-50.1392822-43.63974
	c-25.9981384,1.8570099-45.4967651,24.1411285-43.6397705,50.139267l9.2850647,155.9888458
	c1.8570251,25.9981384,24.1411133,45.4967651,50.1392822,43.63974
	c25.9981384-1.8570251,45.4967651-24.1411133,43.6397705-50.1392822l0,0L419.6843262,244.1968384L419.6843262,244.1968384z
	 M634.1690063,268.3379822c6.4995117-25.0696411-8.3565063-51.0677795-33.4261475-57.5673065
	c-25.0696411-6.4995422-51.067749,8.3565369-57.5673218,33.426178L500.464325,410.3992615
	c-6.4995422,25.0696716,8.3565369,51.0678101,33.426178,57.5673523s51.067749-8.3565674,57.5673218-33.426178
	L634.1690063,268.3379822z M408.5422668,591.4577637c-5.5710144-3.7140503-13.9275818-6.4995117-25.0696411-4.6425171
	c-16.7131042,1.8569946-33.426178,16.7130737-33.426178,48.2822876c0,81.7084961,65.9238586,147.6323242,147.6322937,147.6323242
	s147.6323547-65.9238281,147.6323547-147.6323242l0,0c0-23.2126465-8.3565674-53.8532715-18.5701294-70.5664062
	c-13.9275513-22.2841187-6.4995117-51.067749,14.8560791-64.9953308
	c22.2841187-13.9275818,51.067749-6.4995422,64.9953613,14.8560486c0,0,0,0.9285278,0.9284668,0.9285278
	c19.4985962,33.4261475,31.5692139,80.7799072,31.5692139,118.8486328
	c0,133.7047729-107.706604,242.3398438-241.4113464,242.3398438s-242.3398438-107.706543-242.3398438-241.4113159
	c0.0000153-68.7094116,45.4967651-132.7762756,116.0631409-142.0613098
	c69.6379089-8.3565674,116.0631714,32.4976501,137.4187622,75.2088928
	c11.1420898,23.2126465,1.8570251,51.067749-21.3555908,63.1383667
	c-23.2126465,12.0706177-51.0678101,1.8569946-63.1383667-21.3556519
	C420.6128235,601.6713257,415.0418091,595.1717529,408.5422668,591.4577637z"/>
</svg>
